

<svg xmlns:rdf="http://www.w3.org/1999/02/22-rdf-syntax-ns#" xmlns="http://www.w3.org/2000/svg" xmlns:cc="http://creativecommons.org/ns#" xmlns:dc="http://purl.org/dc/elements/1.1/" xmlns:svg="http://www.w3.org/2000/svg" id="svg2" viewBox="0 0 1111.3 1168.6" version="1.0">
  <g id="layer1" transform="translate(2201.5 2081.9)">
    <g id="g2386" transform="matrix(.25356 0 0 .25356 -1643.3 -1554)">
      <path id="path3187" stroke-linejoin="round" d="m-582.86 3.7908a465.71 465.71 0 1 1 -931.44 0 465.71 465.71 0 1 1 931.44 0z" transform="matrix(4.3333 0 0 4.3333 4533.7 193.08)" stroke="#000" stroke-linecap="round" stroke-width="80" fill="#fff"/>
      <path id="path3185" stroke-linejoin="round" d="m-582.86 3.7908a465.71 465.71 0 1 1 -931.44 0 465.71 465.71 0 1 1 931.44 0z" transform="matrix(2.9548 0 0 2.9548 3088.2 198.3)" stroke="#000" stroke-linecap="round" stroke-width="80" fill="#fff"/>
      <path id="path3183" stroke-linejoin="round" d="m-582.86 3.7908a465.71 465.71 0 1 1 -931.44 0 465.71 465.71 0 1 1 931.44 0z" transform="matrix(1.8249 0 0 1.8249 1903.4 202.59)" stroke="#000" stroke-linecap="round" stroke-width="80" fill="#fff"/>
      <path id="path3181" stroke-linejoin="round" d="m-582.86 3.7908a465.71 465.71 0 1 1 -931.44 0 465.71 465.71 0 1 1 931.44 0z" transform="translate(1038.5 205.71)" stroke="#000" stroke-linecap="round" stroke-width="80" fill="#fff"/>
      <path id="path3192" fill="#fff" d="m-7.2444 220.93l1511.4-2302.8h-3028.6l1517.2 2302.8z"/>
      <path id="rect3189" fill="#fff" d="m-7.2442 223.79l1511.4 2302.8h-3028.6l1517.2-2302.8z"/>
      <path id="path2385" d="m131.33 222.36c-1.47 57.94-34.872 106.09-86.398 130.31-8.459 3.58 81.468 1811.7 84.888 1869.6-135.52 0.5-138.76 0.2-280.85 0.8 2.41-57.9 94.354-1866.8 85.895-1870.4-52.895-24.04-84.085-73.36-86.395-130.34 0-78.07 63.36-141.43 141.43-141.43 78.067 0.004 141.43 63.36 141.43 141.43z"/>
    </g>
  </g>
</svg>
